<svg width="24" height="24" viewBox="0 0 24 24" fill="none" xmlns="http://www.w3.org/2000/svg">
<path d="M13.0171 4.27528C13.105 3.62461 13.7443 3.19903 14.3785 3.36896C14.9704 3.52757 15.2886 4.1699 15.056 4.73685L11.923 12.3736L13.0171 4.27528Z" fill="#FCD043"/>
<path d="M20.0211 13.4666C20.6718 13.5545 21.0974 14.1938 20.9274 14.828C20.7688 15.4199 20.1265 15.738 19.5595 15.5054L11.9228 12.3725L20.0211 13.4666Z" fill="#FCD043"/>
<path d="M18.4404 7.4509C18.9627 7.05297 19.7157 7.20408 20.044 7.77269C20.3504 8.30339 20.1211 8.98254 19.5558 9.21897L11.9404 12.4036L18.4404 7.4509Z" fill="#FCD043"/>
<path d="M16.8943 18.9063C17.2922 19.4285 17.1411 20.1815 16.5725 20.5098C16.0418 20.8162 15.3627 20.5869 15.1263 20.0216L11.9416 12.4063L16.8943 18.9063Z" fill="#FCD043"/>
<path d="M10.8276 20.4696C10.7397 21.1203 10.1004 21.5458 9.4662 21.3759C8.87428 21.2173 8.55616 20.575 8.78875 20.008L11.9217 12.3713L10.8276 20.4696Z" fill="#FCD043"/>
<path d="M3.82362 11.2753C3.17296 11.1874 2.74737 10.5482 2.9173 9.91396C3.07591 9.32203 3.71824 9.00391 4.28519 9.2365L11.9219 12.3695L3.82362 11.2753Z" fill="#FCD043"/>
<path d="M5.43992 17.3589C4.91767 17.7568 4.16469 17.6057 3.8364 17.0371C3.53 16.5064 3.75925 15.8273 4.32461 15.5909L11.9399 12.4062L5.43992 17.3589Z" fill="#FCD043"/>
<path d="M6.98972 5.90525C6.59179 5.383 6.74289 4.63002 7.31151 4.30173C7.84221 3.99533 8.52135 4.22459 8.75778 4.78995L11.9424 12.4053L6.98972 5.90525Z" fill="#FCD043"/>
</svg>
